<svg width="39" height="39" viewBox="0 0 39 39" fill="none" xmlns="http://www.w3.org/2000/svg">
<g clip-path="url(#clip0_0_122)">
<path d="M33.6654 28.9445C32.8219 28.9668 31.9998 29.2155 31.2854 29.6646L26.0626 24.5764C27.1274 23.2318 27.7391 21.5845 27.8099 19.8707L31.5168 19.5C31.8316 20.2932 32.4239 20.9448 33.1834 21.3337C33.943 21.7226 34.818 21.8222 35.6455 21.6139C36.473 21.4056 37.1966 20.9036 37.6815 20.2015C38.1664 19.4994 38.3796 18.6449 38.2814 17.7973C38.1832 16.9496 37.7802 16.1666 37.1476 15.594C36.5149 15.0213 35.6957 14.6982 34.8425 14.6846C33.9893 14.6711 33.1603 14.9681 32.5098 15.5204C31.8593 16.0727 31.4317 16.8426 31.3067 17.6867L27.5501 17.9889C27.2997 16.6974 26.7455 15.4841 25.9334 14.4491C25.1213 13.414 24.0747 12.5871 22.8799 12.0366L23.6071 10.0556H24.221C25.3656 10.047 26.4682 9.62288 27.3236 8.86217C28.179 8.10145 28.7289 7.05593 28.8711 5.92008C29.0133 4.78423 28.7381 3.6354 28.0966 2.6873C27.4552 1.7392 26.4912 1.05639 25.3839 0.765877C24.2767 0.475364 23.1016 0.596937 22.0773 1.10798C21.053 1.61902 20.2492 2.48473 19.8154 3.54408C19.3817 4.60342 19.3475 5.78426 19.7192 6.86694C20.0909 7.94962 20.8432 8.86041 21.8362 9.42989L21.1987 11.4486C20.6149 11.3145 20.0175 11.248 19.4185 11.2503C17.4587 11.2503 15.6643 11.9492 14.2689 13.1132L7.19971 6.02044C7.61191 5.35503 7.79207 4.57181 7.71202 3.79317C7.63197 3.01453 7.29623 2.28435 6.75727 1.71672C6.2183 1.14909 5.50648 0.775996 4.73303 0.655743C3.95958 0.53549 3.16808 0.674851 2.48222 1.05205C1.79635 1.42925 1.25477 2.02303 0.942095 2.74061C0.629421 3.45819 0.563272 4.25914 0.753987 5.01829C0.944701 5.77744 1.38153 6.45203 1.99622 6.93664C2.61091 7.42124 3.36882 7.68857 4.15152 7.69683C4.81499 7.69447 5.43596 7.51031 5.96249 7.19156L13.0293 14.2843C11.8632 15.7351 11.2299 17.5419 11.2349 19.4032V19.8825L9.67652 20.1423C9.2166 19.0664 8.37369 18.1997 7.31113 17.7099C6.24857 17.2202 5.04202 17.1423 3.92533 17.4914C2.80863 17.8406 1.86131 18.5918 1.26694 19.5996C0.67257 20.6074 0.473485 21.7999 0.708267 22.9461C0.943048 24.0923 1.59498 25.1105 2.53771 25.8035C3.48044 26.4964 4.64685 26.8147 5.81087 26.6966C6.9749 26.5786 8.05366 26.0326 8.83809 25.1645C9.62252 24.2965 10.0568 23.1681 10.0567 21.9981L10.0543 21.8588L11.5418 21.6298C12.0891 23.5644 13.3187 25.2353 15.0032 26.3331L13.6904 29.1381C13.2771 29.0158 12.8487 28.9522 12.4178 28.9492H12.3776C11.2603 28.9497 10.1793 29.3464 9.32686 30.0688C8.47442 30.7912 7.90576 31.7924 7.72194 32.8946C7.53813 33.9967 7.75108 35.1283 8.32294 36.0882C8.8948 37.0482 9.78852 37.7742 10.8452 38.1373C11.9019 38.5004 13.0532 38.4771 14.0943 38.0714C15.1354 37.6657 15.9989 36.904 16.5314 35.9217C17.0639 34.9394 17.2307 33.8001 17.0024 32.7063C16.774 31.6125 16.1652 30.6352 15.2842 29.9479L16.6205 27.2256C17.48 27.5703 18.4787 27.771 19.5224 27.771C21.5222 27.771 23.3497 27.0367 24.7546 25.8254L29.8924 30.8404C29.2541 31.6915 28.9219 32.7331 28.9495 33.7965C28.9771 34.8599 29.363 35.8828 30.0446 36.6995C30.7262 37.5162 31.6636 38.0789 32.705 38.2963C33.7463 38.5137 34.8305 38.3732 35.782 37.8975C36.7334 37.4217 37.4964 36.6387 37.9473 35.6752C38.3981 34.7117 38.5104 33.6241 38.266 32.5888C38.0216 31.5535 37.4348 30.6311 36.6007 29.9709C35.7665 29.3107 34.7339 28.9516 33.6701 28.9516L33.6654 28.9445ZM12.4154 36.0278C11.7892 36.0278 11.1886 35.779 10.7459 35.3363C10.3031 34.8935 10.0543 34.2929 10.0543 33.6667C10.0543 33.0405 10.3031 32.4399 10.7459 31.9971C11.1886 31.5543 11.7892 31.3056 12.4154 31.3056C13.0416 31.3056 13.6422 31.5543 14.085 31.9971C14.5278 32.4399 14.7765 33.0405 14.7765 33.6667C14.7765 34.2929 14.5278 34.8935 14.085 35.3363C13.6422 35.779 13.0416 36.0278 12.4154 36.0278ZM19.4987 25.4028C17.9332 25.4028 16.4318 24.7809 15.3248 23.6739C14.2179 22.5669 13.596 21.0655 13.596 19.5C13.596 17.9345 14.2179 16.4331 15.3248 15.3261C16.4318 14.2191 17.9332 13.5973 19.4987 13.5973C21.0643 13.5973 22.5657 14.2191 23.6726 15.3261C24.7796 16.4331 25.4015 17.9345 25.4015 19.5C25.4015 21.0655 24.7796 22.5669 23.6726 23.6739C22.5657 24.7809 21.0643 25.4028 19.4987 25.4028Z" fill="white"/>
</g>
<defs>
<clipPath id="clip0_0_122">
<rect width="37.7778" height="37.7778" fill="white" transform="translate(0.611206 0.611206)"/>
</clipPath>
</defs>
</svg>
