<svg width="39" height="39" viewBox="0 0 39 39" fill="none" xmlns="http://www.w3.org/2000/svg">
<g clip-path="url(#clip0_0_108)">
<path d="M19.5 0.611084L24.2222 7.69442H21.8611V12.4166H17.1389V7.69442H14.7778L19.5 0.611084Z" fill="white"/>
<path d="M36.0278 17.1389V36.0278H2.9722V17.1389H36.0278ZM38.3889 14.7778H0.611084V38.3889H38.3889V14.7778Z" fill="white"/>
<path d="M19.5 19.5C20.4302 19.5 21.3513 19.6832 22.2107 20.0392C23.0701 20.3952 23.8509 20.9169 24.5087 21.5747C25.1664 22.2324 25.6882 23.0133 26.0441 23.8727C26.4001 24.732 26.5833 25.6531 26.5833 26.5833C26.5833 27.5135 26.4001 28.4346 26.0441 29.294C25.6882 30.1534 25.1664 30.9343 24.5087 31.592C23.8509 32.2498 23.0701 32.7715 22.2107 33.1275C21.3513 33.4835 20.4302 33.6667 19.5 33.6667H31.3056V31.3056H33.6667V21.8611H31.3056V19.5H19.5Z" fill="white"/>
<path d="M12.4166 26.5833C12.4166 24.7047 13.1629 22.903 14.4913 21.5747C15.8197 20.2463 17.6214 19.5 19.5 19.5H7.69442V21.8611H5.33331V31.3056H7.69442V33.6667H19.5C17.6214 33.6667 15.8197 32.9204 14.4913 31.592C13.1629 30.2636 12.4166 28.462 12.4166 26.5833Z" fill="white"/>
</g>
<defs>
<clipPath id="clip0_0_108">
<rect width="37.7778" height="37.7778" fill="white" transform="translate(0.611084 0.611084)"/>
</clipPath>
</defs>
</svg>
