<svg width="39" height="39" viewBox="0 0 39 39" fill="none" xmlns="http://www.w3.org/2000/svg">
<g clip-path="url(#clip0_0_101)">
<path d="M33.6669 6.51396C33.6669 8.46896 27.3249 10.0556 19.5002 10.0556C11.6755 10.0556 5.33356 8.46896 5.33356 6.51396C5.33356 4.55896 11.6755 2.97229 19.5002 2.97229C27.3249 2.97229 33.6669 4.55896 33.6669 6.51396Z" fill="white"/>
<path d="M19.5002 12.4168C11.7086 12.4168 5.33356 10.764 5.33356 8.87512V15.9585C5.33356 17.8473 11.7086 19.5001 19.5002 19.5001C27.2919 19.5001 33.6669 17.8473 33.6669 15.9585V8.87512C33.6669 10.764 27.2919 12.4168 19.5002 12.4168Z" fill="white"/>
<path d="M19.5002 21.8612C11.7086 21.8612 5.33356 20.2084 5.33356 18.3195V25.4029C5.33356 27.2917 11.7086 28.9445 19.5002 28.9445C27.2919 28.9445 33.6669 27.2917 33.6669 25.4029V18.3195C33.6669 20.2084 27.2919 21.8612 19.5002 21.8612Z" fill="white"/>
<path d="M19.5002 31.3056C11.7086 31.3056 5.33356 29.6529 5.33356 27.764V34.8473C5.33356 36.7362 11.7086 38.389 19.5002 38.389C27.2919 38.389 33.6669 36.7362 33.6669 34.8473V27.764C33.6669 29.6529 27.2919 31.3056 19.5002 31.3056Z" fill="white"/>
</g>
<defs>
<clipPath id="clip0_0_101">
<rect width="37.7778" height="37.7778" fill="white" transform="translate(0.611328 0.611206)"/>
</clipPath>
</defs>
</svg>
